<svg xmlns="http://www.w3.org/2000/svg" xmlns:xlink="http://www.w3.org/1999/xlink" viewBox="0 0 1199.76 820.63">
    <defs>
        <style>.cls-1{fill:#fff;}.cls-2{fill:url(#linear-gradient);}.cls-3{fill:url(#linear-gradient-2);}</style>
        <linearGradient id="linear-gradient" x1="749.87" y1="744.74" x2="704.51" y2="710.12"
                        gradientUnits="userSpaceOnUse">
            <stop offset="0" stop-color="#b4025b"/>
            <stop offset="1" stop-color="#b4025b"/>
        </linearGradient>
        <linearGradient id="linear-gradient-2" x1="755.72" y1="928.31" x2="702.23" y2="887.47"
                        xlink:href="#linear-gradient"/>
    </defs>
<!--    <title>dark</title>-->
    <g id="Layer_1" data-name="Layer 1">
        <path class="cls-1"
              d="M769.17,1129.4q0,12-9.42,36t-9.42,36V1349q0,14.7,11.09,40.06c-3,3.55-7,5.34-12.2,5.34q-54.3,0-54.3-31.38v-245a84.52,84.52,0,0,1,55.41,0Q769.17,1122.73,769.17,1129.4Z"
              transform="translate(-390.24 -606.61)"/>
        <path class="cls-2"
              d="M742.33,753.22c-19.58,12-31.49.79-33.67-11.88s7.27-52.48,13-52.38C733.16,689.17,761.91,741.16,742.33,753.22Z"
              transform="translate(-390.24 -606.61)"/>
        <path class="cls-3"
              d="M747.59,934.45c-2.24,23-39,19.46-38.39-13.54s8.28-59.84,14.83-59.72C737.13,861.43,749.82,911.43,747.59,934.45Z"
              transform="translate(-390.24 -606.61)"/>
        <path class="cls-1"
              d="M934.68,1376.31q0,29.42-31.69,29.43-49.83,0-48.68-204.88l3.4-508.23q0-12.43-3.4-35.65t-3.39-34.53q21.48-15.83,36.22-15.84,15.84,0,31.69,11.32t15.85,27.16q0,11.32-5.66,29.43-6.79,22.66-7.92,28.3-13.59,77-13.59,215.06,0,223-1.13,215.07,3.4,139.21,18.11,209.4,0,3.39,5.1,15.28T934.68,1376.31Z"
              transform="translate(-390.24 -606.61)"/>
        <path class="cls-1"
              d="M1191.63,1031.07q-9.08,6.79-43,11.32-37.36,4.54-43,7.93-1.14,12.47-1.13,125.64,0,88.29,2.27,118.85,0,12.46,5.65,39.62t5.66,41.88c0,6-3.78,12.06-11.31,18.11s-14.35,9-20.38,9q-22.65,0-36.22-46.41-9.08-33.94-9.06-64.52V1057.11q-6.63-5.65-50.74,0-35.28,4.53-35.28-26,0-43,91.68-39.61l14.72-204.88c0-2.26-1-5.84-2.83-10.75s-2.83-8.49-2.83-10.76q0-6.78,9-13t21.51-5.1q39.62,3.4,39.62,39.62,0,28.3-7.93,84.89t-7.92,83.77a144.35,144.35,0,0,0,2.26,26l62.26-3.4q31.68,0,31.69,24.91Q1206.34,1020.9,1191.63,1031.07Z"
              transform="translate(-390.24 -606.61)"/>
        <path class="cls-1"
              d="M1550.45,1418.19q-9.08,9-34,9-12.46,0-26-15.85V1256.32q0-287.49-95.63-287.5-40.51,0-67.51,47.54-23.64,40.74-23.63,83.76c0,3-1,7.75-2.83,14.15s-2.83,11.14-2.83,14.15V1273.3q0,19.26,5.66,55.47t5.66,54.33q0,18.09-27.16,18.11-19.26,0-32.26-18.13t-13-37.42l6.79-697.12a42.53,42.53,0,0,1-2.26-13.6q0-20.4,22.64-20.41,11.3,0,33.39,15.33t22.07,25.56q0,27.27-10.75,78.35T1298,811q0,2.28,2.27,151,41.87-37.35,64.52-37.36,36.21,0,87.15,21.51,98.49,40.76,98.48,215.06Z"
              transform="translate(-390.24 -606.61)"/>
        <path class="cls-1"
              d="M746.79,689.24q0,22.65-33.95,22.64-6.8,0-10.19-2.32-4.53-48.6-63.39-48.62-55.47,0-86,127.25Q532.87,878,532.86,959.76q7.9-1.11,20.38,0H583.8q41.87,0,41.88,24.91a159,159,0,0,1-2.28,22.63q-18.33,10.19-57.25,10.19-29.76,0-36.65,4.53-3.45,44.14-3.43,159.6v81.49a465.3,465.3,0,0,0,13.41,109.8,26.13,26.13,0,0,1,2.44,10.19q0,27.17-38.49,27.16-33.94,0-33.95-91.68,0-249,4.52-294.3H416.28q-26.05,0-26-24.9,0-32.82,45.28-32.83h40.75q2.25-22.62,4.53-57.72,17-301.08,168.65-301.09Q746.79,607.74,746.79,689.24Z"
              transform="translate(-390.24 -606.61)"/>
    </g>
    <g id="Layer_4" data-name="Layer 4">
        <path class="cls-1"
              d="M1415.28,625.21q0,.49-2,11.41-3.75,21.84-3.75,32.92v33.75q0,13.85,1.63,16.78a13.1,13.1,0,0,0,1.31,1.63,3.71,3.71,0,0,1,1.14,2.12,2.45,2.45,0,0,1-2.77,2.77,15.4,15.4,0,0,1-6.69-2.12,12.55,12.55,0,0,1-1.3-5.37V645.91c-.54-.43-1.41-1.08-2.61-2V640q0-3.75,2.77-14.67,2.94-11.73,4.73-11.73c1.63,0,3.28,1.49,5,4.48S1415.28,623.47,1415.28,625.21Z"
              transform="translate(-390.24 -606.61)"/>
        <path class="cls-1"
              d="M1505.25,696a27.79,27.79,0,0,1-7.33,19.23,32.29,32.29,0,0,1-18.59,10.27,75.84,75.84,0,0,1-13.69,1.14q-16.14,0-27.06-6.19-13.53-7.67-13.52-22.66a27.88,27.88,0,0,1,6.52-18.42q4.89-5.87,15.64-12.22-17-10.27-17-23.31a27.18,27.18,0,0,1,10.92-22.33,37.92,37.92,0,0,1,24.29-8.15,33.79,33.79,0,0,1,18.42,5.62,35,35,0,0,1,13,14.43q2.44-3.58,2.77-3.59,3.58,0,3.58,5.22,0,8.47-12.06,17-9.78,5.55-19.39,11.25v.32l.32.66Q1505.25,673,1505.25,696Zm-8.64,2.21q0-11.11-10.92-18-5.39-3.27-20.7-8.34c-3.91-1.3-6.36-2-7.33-2-.55,0-2.12.87-4.73,2.62q-10.76,6.87-13.86,10a21,21,0,0,0-6.35,15.37q0,11.94,11.24,17.83,9,4.9,22,4.9,12.06,0,20.54-5.07Q1496.61,709.45,1496.61,698.16Zm-4.24-55.67a41.12,41.12,0,0,1-2.93-5.22q-7.83-17.26-24-17.28a30.49,30.49,0,0,0-18.91,6,20.43,20.43,0,0,0-8.64,17.11q0,6.52,7.83,12.22,7.17,5.39,14,5.38,2.3,0,15-6.35Q1486.19,648.68,1492.37,642.49Z"
              transform="translate(-390.24 -606.61)"/>
        <path class="cls-1"
              d="M1590,665.28q0,7.85-7.53,7.85h-28.82v24.29a40.83,40.83,0,0,0,1.63,9.78c-.55.87-1.14,1.3-1.79,1.3q-8,0-8-7.66V673.13h-32.6a8.59,8.59,0,0,1-1.14-4.07,6.41,6.41,0,0,1,1.3-3.67,3.65,3.65,0,0,1,2.94-1.88,82.06,82.06,0,0,1,8.64.66,83.92,83.92,0,0,0,8.63.65h12.23V631.24a8.59,8.59,0,0,1,4.07-1.14,10.85,10.85,0,0,1,4.32,1.14c1.69.76,2.53,1.69,2.53,2.77a42.39,42.39,0,0,1-1.38,8.8,42,42,0,0,0-1.39,8.81v13.2h25.21a50.59,50.59,0,0,0,10-1.31A2,2,0,0,1,1590,665.28Z"
              transform="translate(-390.24 -606.61)"/>
    </g>
</svg>